<?xml version="1.0" standalone="no"?>
<!DOCTYPE svg PUBLIC "-//W3C//DTD SVG 20010904//EN"
 "http://www.w3.org/TR/2001/REC-SVG-20010904/DTD/svg10.dtd">
<svg version="1.0" xmlns="http://www.w3.org/2000/svg"
 width="1280.000000pt" height="1280.000000pt" viewBox="0 0 1280.000000 1280.000000"
 preserveAspectRatio="xMidYMid meet">

<g transform="translate(0.000000,1280.000000) scale(0.100000,-0.100000)"
fill="#000000" stroke="none">
<path d="M8440 8619 c-146 -27 -377 -70 -515 -94 -137 -25 -371 -68 -520 -95
-148 -27 -409 -74 -580 -105 -1391 -251 -1491 -270 -1472 -273 10 -2 106 13
215 33 108 20 212 39 231 42 l33 6 -7 -34 c-4 -19 -31 -113 -59 -209 -29 -96
-77 -257 -107 -357 l-54 -182 -110 -20 c-274 -49 -417 -73 -420 -69 -2 2 18
76 45 163 38 126 148 499 176 597 3 9 13 19 22 21 14 4 13 5 -3 6 -11 0 -139
-22 -285 -49 -146 -28 -276 -50 -290 -51 -14 0 -19 -3 -12 -6 18 -7 16 -23
-32 -182 -25 -80 -66 -218 -92 -306 -25 -88 -49 -166 -53 -172 -4 -8 -77 57
-200 181 l-192 193 25 86 c13 48 28 91 31 97 8 13 8 13 -120 -9 -269 -47 -255
-43 -250 -65 56 -252 59 -282 62 -735 4 -456 4 -454 49 -471 22 -9 22 -10 23
-297 1 -158 1 -291 1 -295 0 -5 1121 -9 2490 -10 l2490 -3 0 553 0 552 -2102
0 -2103 1 -50 49 c-36 35 -45 50 -35 54 8 3 330 62 715 131 385 69 795 144
910 165 116 21 377 68 580 105 607 108 892 162 865 164 -16 1 -215 -33 -392
-67 -54 -11 -98 -17 -98 -14 0 2 11 41 25 86 13 44 54 182 90 306 36 124 77
261 90 306 l25 81 117 22 c234 42 407 70 410 67 2 -2 -16 -73 -41 -157 -152
-520 -178 -605 -194 -618 -22 -17 11 -13 318 45 129 24 246 45 260 45 17 1 19
3 8 6 -10 2 -18 6 -18 7 0 3 139 481 193 660 36 121 30 116 144 136 40 7 70
17 67 22 -7 12 -12 11 -304 -43z m-1520 -299 c0 -11 -77 -276 -214 -735 l-12
-40 -104 -18 c-58 -10 -177 -31 -265 -47 -87 -16 -161 -28 -162 -26 -2 2 7 39
21 82 26 86 140 470 177 599 12 44 26 85 31 91 4 6 56 19 115 28 186 31 388
68 392 72 8 7 21 4 21 -6z m-2758 -912 c-15 -15 -26 -4 -18 18 5 13 9 15 18 6
9 -9 9 -15 0 -24z m1628 -665 c84 -170 166 -334 182 -365 l28 -58 -272 0 -273
0 -183 365 -182 365 273 0 273 0 154 -307z m1133 -51 c98 -196 177 -360 177
-364 0 -5 -121 -8 -268 -8 l-269 0 -144 287 c-79 158 -161 323 -181 365 l-37
78 272 0 272 0 178 -358z m1107 -2 c99 -198 180 -362 180 -365 0 -3 -121 -5
-270 -5 l-270 0 -180 360 c-99 198 -180 362 -180 365 0 3 121 5 270 5 l270 0
180 -360z m920 -5 l0 -365 -88 0 -87 0 -183 365 -182 365 270 0 270 0 0 -365z
m-4790 19 c0 -8 -7 -14 -15 -14 -15 0 -21 21 -9 33 10 9 24 -2 24 -19z m696 5
c10 -17 -13 -36 -27 -22 -12 12 -4 33 11 33 5 0 12 -5 16 -11z m-23 -264 c31
-63 57 -117 57 -120 0 -3 -121 -5 -270 -5 l-270 0 -55 110 c-30 60 -55 114
-55 120 0 6 93 10 268 10 l267 0 58 -115z m-350 -215 c34 -27 45 -92 23 -143
-17 -41 -34 -52 -69 -43 -71 17 -58 196 14 205 4 1 18 -8 32 -19z m427 -11 c6
-10 10 -22 10 -28 0 -19 -18 -12 -25 10 -10 29 -47 21 -64 -15 -17 -36 -4
-104 22 -120 15 -9 22 -6 43 19 21 27 24 28 24 9 0 -11 -11 -31 -24 -43 -20
-19 -28 -21 -45 -12 -30 17 -43 47 -43 102 1 56 15 87 45 98 27 10 45 4 57
-20z m295 6 c21 -20 25 -34 25 -82 0 -93 -47 -136 -96 -88 -20 20 -24 34 -24
85 0 51 4 65 25 85 13 14 29 25 35 25 6 0 22 -11 35 -25z m-991 9 c11 -4 16
-19 16 -50 0 -46 -17 -64 -59 -64 -18 0 -21 -6 -21 -40 0 -22 -4 -40 -10 -40
-6 0 -10 40 -10 100 l0 100 34 0 c19 0 41 -3 50 -6z m146 -20 c8 -20 6 -34 -5
-58 -15 -28 -14 -34 1 -69 9 -20 14 -41 9 -45 -4 -4 -9 -2 -11 3 -15 41 -42
80 -56 83 -15 3 -18 -4 -18 -42 0 -25 -4 -46 -10 -46 -6 0 -10 40 -10 100 l0
100 45 0 c40 0 47 -3 55 -26z m269 12 c28 -34 25 -140 -5 -171 -9 -8 -31 -15
-50 -15 l-34 0 0 100 0 100 39 0 c21 0 44 -6 50 -14z m61 -57 c0 -78 11 -109
39 -109 26 0 31 19 31 106 0 43 4 74 10 74 13 0 13 -140 1 -173 -12 -32 -45
-40 -73 -18 -18 15 -22 31 -26 104 -3 61 -1 87 7 87 7 0 11 -25 11 -71z m350
61 c0 -5 -9 -10 -20 -10 -18 0 -20 -7 -20 -84 0 -47 -4 -88 -10 -91 -6 -4 -10
27 -10 84 0 84 -1 91 -20 91 -11 0 -20 5 -20 10 0 6 23 10 50 10 28 0 50 -4
50 -10z m40 -91 c0 -64 -4 -98 -10 -94 -6 3 -10 48 -10 101 0 56 4 94 10 94 6
0 10 -40 10 -101z m225 36 c15 -36 30 -63 33 -60 3 3 4 29 3 59 -1 30 3 57 9
61 7 4 10 -27 10 -94 0 -56 -4 -101 -9 -101 -4 0 -23 33 -42 73 l-33 72 -6
-75 -6 -75 -2 103 c-1 56 2 102 6 102 5 0 22 -29 37 -65z"/>
<path d="M4420 6201 c-5 -11 -10 -38 -10 -61 0 -50 15 -80 39 -80 26 0 42 23
48 69 9 69 -49 123 -77 72z"/>
<path d="M5140 6205 c-7 -8 -13 -38 -13 -65 0 -27 6 -57 13 -65 18 -22 47 -18
61 7 15 29 14 104 -1 123 -16 19 -44 19 -60 0z"/>
<path d="M4150 6185 c0 -32 2 -35 29 -35 21 0 32 6 36 20 9 27 -11 50 -41 50
-21 0 -24 -5 -24 -35z"/>
<path d="M4280 6185 c0 -30 3 -35 24 -35 30 0 50 23 41 50 -4 14 -15 20 -36
20 -27 0 -29 -3 -29 -35z"/>
<path d="M4560 6140 c0 -72 2 -80 19 -80 33 0 51 28 51 76 0 58 -14 84 -45 84
-24 0 -25 -2 -25 -80z"/>
<path d="M4447 7897 c-120 -23 -214 -43 -208 -45 9 -3 441 73 466 83 36 13
-71 -3 -258 -38z"/>
<path d="M8626 7892 c-104 -20 -184 -38 -178 -40 9 -3 383 64 407 73 33 12
-65 -2 -229 -33z"/>
<path d="M8398 7843 c6 -2 18 -2 25 0 6 3 1 5 -13 5 -14 0 -19 -2 -12 -5z"/>
<path d="M3980 5580 l0 -360 1285 0 1285 0 0 360 0 360 -1285 0 -1285 0 0
-360z m290 291 c13 -25 13 -41 0 -41 -5 0 -10 6 -10 14 0 19 -30 29 -46 15
-24 -19 -16 -38 24 -56 31 -15 37 -23 40 -54 3 -38 -17 -69 -44 -69 -19 0 -54
36 -54 55 0 22 17 18 23 -5 6 -24 52 -28 61 -5 9 24 -3 42 -36 56 -39 16 -54
54 -33 85 19 29 60 32 75 5z m136 -6 c22 -34 10 -44 -15 -14 -16 20 -23 22
-38 13 -25 -16 -38 -68 -27 -112 7 -30 14 -38 37 -40 22 -3 30 1 34 17 3 12 9
21 14 21 15 0 10 -27 -9 -50 -22 -28 -65 -22 -83 11 -16 31 -13 127 6 155 21
32 60 31 81 -1z m134 15 c0 -10 -5 -11 -52 -14 -19 -1 -23 -7 -23 -31 0 -27 3
-30 38 -33 50 -4 48 -22 -3 -22 -39 0 -40 -1 -40 -35 0 -34 1 -35 40 -35 22 0
40 -4 40 -10 0 -11 -5 -12 -45 -12 -58 0 -55 -4 -55 95 0 52 3 97 7 100 10 11
93 8 93 -3z m81 -62 l33 -73 6 75 6 75 2 -102 c1 -57 -2 -103 -7 -103 -4 0
-22 33 -39 73 l-31 72 -1 -72 c0 -42 -4 -73 -10 -73 -6 0 -10 40 -10 100 0 55
4 100 9 100 4 0 23 -33 42 -72z m179 56 c0 -11 -7 -14 -29 -11 -37 6 -54 -5
-49 -34 2 -18 10 -25 33 -27 49 -6 54 -22 7 -22 -41 0 -42 -1 -42 -35 0 -34 1
-35 40 -35 25 0 40 -5 40 -12 0 -8 -12 -12 -32 -11 -18 1 -41 2 -50 2 -16 1
-18 12 -18 94 0 52 3 97 7 100 3 4 26 7 50 7 32 0 43 -4 43 -16z"/>
<path d="M6570 5580 l0 -360 1195 0 1195 0 0 360 0 360 -1195 0 -1195 0 0
-360z m290 301 c0 -5 -10 -11 -22 -13 -22 -3 -23 -8 -26 -91 -4 -113 -22 -106
-22 9 0 77 -2 84 -20 84 -11 0 -20 5 -20 10 0 6 25 10 55 10 30 0 55 -4 55 -9z
m97 -82 c28 -100 26 -153 -2 -64 -2 9 -16 15 -33 15 -25 0 -31 -5 -37 -32 -4
-18 -9 -27 -12 -20 -4 12 4 58 29 155 5 21 14 37 21 34 6 -2 21 -41 34 -88z
m63 44 l0 -48 31 48 c17 26 35 47 40 47 14 0 10 -13 -11 -40 -25 -32 -25 -51
1 -101 11 -22 18 -46 16 -52 -2 -7 -16 12 -31 42 -31 60 -46 56 -46 -11 0 -21
-4 -38 -10 -38 -6 0 -10 40 -10 100 0 60 4 100 10 100 6 0 10 -21 10 -47z
m200 38 c0 -6 -17 -11 -37 -13 -33 -3 -38 -7 -41 -30 -3 -24 0 -27 33 -30 46
-4 46 -22 0 -26 -34 -3 -36 -5 -33 -35 3 -29 6 -32 41 -35 55 -5 45 -22 -13
-22 l-50 0 0 93 c0 52 3 97 7 100 10 11 93 8 93 -2z"/>
<path d="M6918 5845 c-3 -6 -9 -25 -13 -42 -6 -29 -4 -33 14 -33 22 0 25 14
12 60 -4 14 -10 20 -13 15z"/>
<path d="M6468 5203 l-2488 -3 0 -175 0 -175 2490 0 2490 0 0 180 c0 99 -1
179 -2 178 -2 -2 -1122 -4 -2490 -5z m-2199 -78 c11 -11 16 -35 16 -79 0 -77
-19 -106 -72 -106 l-33 0 0 106 0 107 37 -6 c20 -4 44 -13 52 -22z m58 -132
c-2 -32 -3 -8 -3 52 0 61 1 87 3 58 2 -29 2 -78 0 -110z m135 134 c13 -20 9
-65 -7 -80 -12 -13 -12 -20 5 -55 23 -47 24 -52 10 -52 -5 0 -18 21 -29 46
-26 58 -55 59 -58 0 -5 -82 -13 -44 -13 59 l0 108 42 -7 c23 -4 46 -12 50 -19z
m136 6 c2 -9 -9 -13 -37 -13 -39 0 -41 -2 -41 -30 0 -28 3 -30 35 -30 24 0 35
-5 35 -15 0 -10 -11 -15 -35 -15 -33 0 -35 -2 -35 -35 0 -34 1 -35 40 -35 22
0 40 -4 40 -10 0 -5 -22 -10 -50 -10 l-50 0 0 98 c0 54 3 102 7 106 12 11 86
2 91 -11z m114 0 c10 -9 18 -25 18 -37 0 -20 0 -20 -16 2 -19 27 -50 29 -64 3
-5 -11 -10 -40 -10 -65 0 -71 46 -102 73 -50 17 33 30 17 14 -17 -15 -29 -58
-37 -80 -14 -35 35 -33 139 4 176 23 23 37 24 61 2z m146 0 c2 -8 -6 -13 -22
-13 l-26 0 0 -92 c0 -50 -3 -89 -6 -85 -3 3 -6 44 -6 91 -1 84 -1 86 -24 86
-24 0 -31 10 -17 24 12 11 96 2 101 -11z m111 -4 c35 -38 36 -132 0 -175 -17
-20 -53 -17 -74 6 -28 31 -31 117 -6 158 24 37 52 41 80 11z m125 11 c33 -12
43 -52 22 -84 -14 -22 -14 -28 -1 -60 17 -39 19 -56 8 -56 -5 0 -16 20 -26 45
-13 31 -25 45 -38 45 -16 0 -19 -7 -19 -45 0 -25 -4 -45 -10 -45 -6 0 -10 42
-10 105 0 105 0 105 24 105 14 0 36 -4 50 -10z"/>
<path d="M4200 5040 c0 -73 2 -80 19 -80 28 0 51 38 51 83 0 51 -15 77 -45 77
-24 0 -25 -2 -25 -80z"/>
<path d="M4380 5091 c0 -35 12 -45 46 -37 20 5 25 12 22 34 -2 22 -9 28 -35
30 -31 3 -33 1 -33 -27z"/>
<path d="M4900 5101 c-27 -51 -4 -141 35 -141 37 0 57 82 33 135 -14 30 -53
34 -68 6z"/>
<path d="M5040 5084 c0 -32 2 -35 26 -32 55 6 59 68 4 68 -28 0 -30 -3 -30
-36z"/>
<path d="M3980 4660 l0 -180 2490 0 2490 0 0 180 0 180 -2490 0 -2490 0 0
-180z m290 100 c20 -20 26 -40 12 -40 -4 0 -15 9 -25 20 -36 43 -77 -19 -63
-95 11 -57 60 -74 73 -25 6 22 23 27 23 7 0 -25 -31 -57 -55 -57 -45 0 -74 79
-55 149 16 60 54 77 90 41z m119 -58 c29 -96 35 -132 24 -132 -6 0 -13 14 -16
30 -6 25 -11 30 -36 30 -25 0 -30 -5 -36 -30 -4 -16 -11 -30 -16 -30 -6 0 -8
8 -5 18 3 9 12 49 21 87 27 121 35 125 64 27z m90 5 c22 -110 27 -106 57 41 2
12 9 22 14 22 6 0 9 -41 8 -102 -1 -99 -2 -101 -7 -33 l-6 70 -12 -40 c-6 -22
-14 -52 -17 -67 -10 -46 -21 -32 -42 50 l-19 77 -6 -80 -5 -80 -2 103 c-2 79
1 102 11 102 8 0 18 -24 26 -63z m211 53 c0 -5 -18 -10 -40 -10 -38 0 -40 -2
-40 -30 0 -28 2 -30 41 -30 52 0 48 -24 -4 -28 -34 -3 -37 -6 -37 -33 0 -27 2
-29 40 -29 29 0 40 -4 40 -15 0 -11 -12 -15 -48 -15 l-48 0 -1 100 -2 100 50
0 c27 0 49 -4 49 -10z m132 -16 c10 -21 9 -31 -4 -55 -16 -27 -16 -32 1 -72
21 -48 21 -48 50 66 21 84 27 96 40 81 9 -9 51 -161 51 -182 0 -25 -18 -11
-23 18 -6 25 -11 30 -36 30 -25 0 -30 -5 -36 -30 -5 -22 -12 -30 -28 -30 -17
0 -27 11 -40 45 -13 31 -25 45 -38 45 -16 0 -19 -7 -19 -45 0 -25 -4 -45 -10
-45 -6 0 -10 40 -10 100 l0 100 45 0 c39 0 47 -4 57 -26z"/>
<path d="M4346 4699 c-4 -22 -2 -35 6 -41 24 -15 31 -8 24 24 -9 47 -22 54
-30 17z"/>
<path d="M4740 4717 c0 -34 1 -34 33 -28 26 6 32 12 32 31 0 21 -5 26 -32 28
-31 3 -33 2 -33 -31z"/>
<path d="M4886 4698 c-4 -21 -2 -34 6 -40 24 -15 31 -8 24 23 -3 17 -6 35 -6
40 0 23 -18 5 -24 -23z"/>
<path d="M3980 4275 l0 -195 2490 0 2490 0 0 195 0 195 -2490 0 -2490 0 0
-195z m281 116 c21 -17 24 -28 24 -86 0 -58 -3 -69 -24 -86 -13 -10 -36 -19
-52 -19 l-29 0 0 105 0 105 29 0 c16 0 39 -9 52 -19z m133 -74 c29 -105 30
-107 16 -107 -5 0 -10 6 -10 14 0 45 -65 53 -76 10 -3 -13 -10 -24 -16 -24 -5
0 -7 8 -4 18 3 9 10 37 16 62 27 106 31 120 39 120 5 0 20 -42 35 -93z m136
78 c0 -8 -9 -15 -20 -15 -19 0 -20 -7 -20 -91 0 -57 -4 -88 -10 -84 -5 3 -10
44 -10 89 0 75 -2 84 -20 89 -39 10 -20 27 30 27 38 0 50 -4 50 -15z m115 0
c0 -5 -17 -11 -37 -13 -35 -3 -38 -6 -38 -33 0 -27 3 -29 35 -29 19 0 35 -4
35 -10 0 -5 -16 -10 -35 -10 -33 0 -35 -2 -35 -35 0 -34 1 -35 40 -35 30 0 40
-4 40 -16 0 -12 -10 -14 -47 -12 l-48 3 -3 89 c-2 49 0 96 2 103 7 16 91 14
91 -2z"/>
<path d="M4200 4301 c0 -77 1 -79 23 -74 32 8 47 32 47 76 0 51 -15 77 -45 77
-24 0 -25 -2 -25 -79z"/>
<path d="M4350 4355 c0 -11 -3 -30 -6 -42 -5 -19 -2 -23 16 -23 19 0 21 4 15
33 -8 38 -25 60 -25 32z"/>
</g>
</svg>
